
<svg version="1.0" xmlns="http://www.w3.org/2000/svg"
 width="1100.000000pt" height="693.000000pt" viewBox="0 0 1100.000000 693.000000"
 preserveAspectRatio="xMidYMid meet">
<metadata>
Created by potrace 1.16, written by Peter Selinger 2001-2019
</metadata>
<g transform="translate(0.000000,693.000000) scale(0.100000,-0.100000)"
fill="#000000" stroke="none">
<path d="M4862 6198 c15 -12 4 -33 -97 -193 -385 -607 -439 -695 -431 -702 3
-4 7 -4 9 -2 12 16 134 213 142 229 5 11 13 20 17 20 5 0 8 5 8 10 0 6 8 23
18 38 11 15 30 45 44 67 24 39 46 73 78 120 8 13 48 76 89 141 41 66 81 127
90 138 15 17 16 17 21 -15 4 -29 -5 -49 -70 -148 -41 -63 -75 -118 -75 -122 0
-4 -10 -21 -23 -38 -12 -17 -22 -34 -21 -37 0 -4 -6 -11 -15 -16 -9 -5 -16
-14 -16 -19 0 -6 -34 -63 -77 -127 -129 -198 -176 -273 -171 -276 2 -1 12 -8
22 -16 16 -12 18 -12 11 -1 -6 11 -1 12 29 7 20 -4 36 -3 36 1 0 15 -15 30
-37 37 -21 7 -18 13 58 134 176 277 223 343 242 337 9 -3 27 -8 39 -12 13 -4
19 -2 15 4 -4 6 0 14 8 17 13 4 13 2 5 -14 -13 -25 -27 -33 -35 -20 -7 12 -55
14 -55 2 0 -16 13 -22 26 -11 8 7 14 7 19 -1 3 -5 0 -10 -7 -11 -7 0 -4 -4 7
-9 19 -9 19 -9 -3 -16 -13 -4 -19 -10 -14 -13 7 -4 3 -16 -10 -31 -11 -14 -17
-20 -14 -13 4 6 2 14 -3 18 -6 3 -8 -4 -6 -17 3 -12 -3 -34 -12 -48 -34 -51
-174 -274 -183 -290 -6 -12 -5 -17 5 -17 8 0 12 4 10 8 -5 8 47 31 61 28 5 -2
26 5 48 14 56 25 66 22 66 -17 0 -26 -5 -35 -22 -39 -12 -4 -25 -2 -28 2 -3 5
-11 3 -18 -5 -11 -12 -8 -14 16 -14 15 0 37 7 48 15 10 8 30 15 45 15 28 0 79
21 79 32 0 4 -12 3 -27 -3 -16 -6 -40 -13 -55 -16 -25 -4 -28 -1 -28 25 0 25
6 32 32 41 17 6 29 14 25 17 -3 3 -20 -1 -38 -10 -18 -9 -42 -16 -54 -16 -12
0 -25 -3 -29 -7 -4 -5 -11 -8 -14 -9 -7 -1 -52 -12 -85 -21 -18 -5 -18 -4 -2
21 10 14 21 23 26 20 5 -3 9 4 9 15 0 15 6 21 23 21 13 0 27 3 31 8 4 4 11 7
14 8 4 0 14 4 22 7 8 4 24 8 35 10 11 1 25 5 30 9 6 3 46 15 90 28 44 12 91
28 105 35 14 7 39 15 55 18 17 2 43 9 58 15 15 7 41 14 56 17 16 3 41 12 57
20 16 8 38 15 49 15 11 0 30 7 41 15 37 26 74 27 85 2 9 -22 10 -22 5 1 -4 19
2 26 30 38 33 14 36 13 68 -13 l34 -27 -26 -13 c-15 -8 -34 -12 -43 -10 -9 2
-33 -4 -54 -14 -21 -11 -48 -19 -59 -19 -14 0 -17 -3 -9 -11 8 -8 17 -7 34 2
21 11 69 25 157 46 25 6 76 -32 65 -50 -3 -5 0 -7 8 -5 12 4 67 -33 115 -77 6
-5 26 -22 45 -37 179 -140 239 -190 239 -198 0 -6 6 -10 14 -10 8 0 29 -12 46
-26 24 -21 28 -29 18 -36 -9 -7 -7 -8 8 -4 14 4 27 -1 42 -17 17 -18 30 -22
58 -19 23 3 32 7 24 12 -7 5 -23 6 -34 4 -16 -3 -166 112 -591 452 -314 251
-583 465 -600 477 -28 19 -29 19 -13 1 16 -19 16 -19 -23 -19 -37 0 -40 2 -37
24 2 17 11 27 28 32 l25 6 -24 4 c-32 5 -36 21 -14 48 l18 22 130 -104 c72
-57 162 -128 201 -158 39 -30 142 -110 228 -179 87 -69 184 -145 216 -170 32
-25 183 -144 336 -265 453 -359 461 -364 448 -331 -4 10 31 5 133 -20 76 -19
144 -33 152 -32 7 2 -65 21 -160 43 l-173 40 -280 220 c-155 122 -400 315
-546 430 -586 461 -719 565 -726 565 -4 0 -1 -6 8 -12z m182 -450 c15 -25 -6
-43 -72 -62 -31 -10 -65 -21 -74 -27 -10 -5 -34 -12 -55 -15 -20 -3 -43 -12
-50 -20 -16 -16 -68 -20 -58 -4 4 6 11 7 17 4 7 -4 8 -2 4 5 -12 20 21 59 56
66 18 4 42 13 53 19 34 22 75 25 76 7 1 -12 2 -12 6 2 5 18 59 49 77 43 5 -1
14 -9 20 -18z m261 -3 c27 -22 24 -31 -7 -26 -5 0 -8 -4 -8 -9 0 -7 13 -9 33
-5 26 5 37 2 56 -19 24 -26 24 -26 3 -26 -11 0 -23 -4 -26 -9 -3 -5 -26 -12
-51 -15 -25 -4 -45 -11 -45 -16 0 -9 -90 -31 -101 -24 -4 2 -9 -1 -11 -7 -2
-7 -13 -13 -24 -14 -10 -1 -27 -6 -37 -10 -9 -4 -26 -5 -37 -2 -11 3 -17 1
-14 -4 3 -5 -1 -11 -8 -13 -7 -1 -27 -8 -45 -13 -22 -8 -35 -7 -42 0 -8 8 -11
6 -11 -6 0 -9 -4 -17 -10 -17 -5 0 -12 0 -15 0 -3 0 -25 -9 -51 -20 -25 -11
-49 -18 -53 -16 -4 3 -13 1 -21 -4 -9 -5 -20 -4 -28 2 -10 9 -12 8 -10 -1 2
-10 -60 -40 -84 -41 -5 0 -8 13 -8 29 0 21 6 32 20 36 11 3 20 11 20 16 0 6
-5 7 -11 3 -7 -4 -1 12 12 35 15 27 32 44 49 47 14 3 45 13 70 22 25 8 53 15
63 14 9 0 17 3 17 8 0 4 23 13 50 19 28 6 62 18 76 28 22 14 27 14 35 2 5 -8
9 -21 10 -29 0 -13 1 -13 6 0 6 17 73 80 84 80 4 0 10 -4 14 -10 3 -5 14 -2
26 8 18 16 49 29 74 31 6 0 24 -10 40 -24z"/>
<path d="M5426 5505 c-16 -9 -35 -14 -41 -11 -6 2 -22 -2 -35 -9 -19 -10 -28
-11 -39 -2 -11 9 -13 9 -8 0 9 -15 -5 -24 -50 -29 -23 -3 -40 0 -46 8 -6 9 -7
8 -3 -5 3 -10 0 -19 -7 -21 -6 -2 -31 -9 -54 -15 -49 -14 -53 -25 -18 -53 15
-11 25 -30 25 -44 l0 -26 -24 29 c-13 15 -27 39 -31 52 -7 22 -9 23 -20 8 -15
-21 -26 -22 -19 -3 3 8 1 17 -4 20 -5 3 -22 -18 -37 -47 -15 -29 -40 -62 -54
-75 -14 -13 -20 -21 -13 -17 24 12 4 -50 -22 -67 -6 -4 1 -8 16 -8 20 0 25 4
21 18 -7 28 65 152 88 152 10 0 22 0 26 1 4 0 9 -4 11 -10 2 -5 -11 -14 -29
-18 -18 -5 -35 -15 -37 -22 -3 -9 0 -11 8 -6 9 6 10 1 5 -16 -7 -21 -6 -22 9
-7 9 9 16 21 16 26 0 21 45 21 68 0 20 -20 22 -30 20 -93 -3 -60 -6 -70 -20
-69 -10 1 -18 -2 -18 -7 0 -5 4 -9 10 -9 19 0 -13 -49 -39 -59 -17 -6 -20 -10
-8 -10 9 -1 17 -7 17 -13 1 -7 14 12 30 42 21 41 30 51 35 38 7 -17 -15 -68
-37 -84 -7 -6 -29 -15 -50 -21 -30 -9 -39 -8 -53 6 -17 15 -17 15 -1 -10 9
-14 14 -27 12 -30 -2 -2 8 -15 22 -29 14 -14 19 -17 12 -6 -13 16 -12 20 5 33
17 13 17 15 3 10 -10 -4 -18 -2 -18 2 0 10 25 21 47 21 13 0 13 -3 3 -15 -10
-12 -10 -15 2 -15 8 0 19 15 26 34 19 52 58 89 85 81 22 -7 22 -7 2 8 -18 14
-19 19 -7 49 8 21 9 34 2 36 -5 2 -10 20 -10 39 0 32 2 35 25 31 14 -3 25 -2
25 3 0 4 6 10 13 12 6 2 0 3 -14 1 -33 -4 -49 12 -49 49 0 23 -3 27 -13 19
-10 -8 -20 -4 -40 18 -30 32 -35 45 -12 36 8 -3 15 -1 15 3 0 11 19 9 38 -2 8
-5 12 -2 12 9 0 11 6 15 19 11 12 -3 22 1 25 10 3 8 10 12 15 8 5 -3 33 3 63
14 29 10 82 28 118 39 38 12 55 21 40 22 -14 0 -38 -7 -54 -15z"/>
<path d="M8656 5286 c-92 -101 -177 -195 -189 -210 -13 -14 -31 -26 -42 -27
-20 0 -20 -1 -1 -8 11 -4 23 -16 28 -27 6 -16 7 -14 5 8 -2 25 31 69 129 173
16 17 46 49 66 73 l38 43 1 -28 c1 -15 1 -35 0 -44 -2 -16 32 -32 43 -21 3 3
6 17 6 32 0 15 9 35 21 46 20 18 21 18 36 -1 8 -11 21 -33 29 -50 16 -37 58
-97 50 -72 -3 10 -1 28 5 40 9 20 9 20 -4 5 -13 -16 -15 -16 -27 6 -7 13 -10
28 -7 33 3 5 2 15 -4 23 -7 13 -9 13 -9 0 0 -13 -1 -13 -10 0 -14 22 -12 30 7
23 11 -4 14 -3 9 6 -5 7 -14 10 -22 7 -7 -3 -16 -1 -19 4 -4 6 -1 10 5 10 6 0
9 4 5 9 -3 5 -1 12 4 16 6 3 47 -58 93 -135 50 -85 89 -140 99 -140 8 0 24 -6
34 -14 18 -13 18 -14 -8 -9 -15 3 -27 2 -27 -1 0 -7 44 -91 103 -195 24 -43
27 -55 16 -62 -8 -5 -21 -6 -29 -4 -12 4 -14 -4 -12 -43 1 -26 3 -63 2 -82 0
-45 9 -72 21 -65 5 4 9 -5 9 -19 0 -18 -4 -24 -15 -20 -9 4 -15 0 -15 -10 0
-12 5 -13 23 -7 16 6 21 16 19 34 -1 14 2 28 8 32 6 4 10 -26 10 -87 0 -86 2
-94 23 -107 21 -13 21 -13 5 6 -17 18 -16 19 5 18 12 -1 35 -5 52 -10 26 -7
27 -9 10 -15 -18 -7 -16 -9 10 -16 17 -4 44 -16 60 -26 17 -10 34 -18 39 -18
19 0 -21 33 -83 68 l-66 37 84 13 c66 10 87 10 100 0 9 -7 13 -8 9 -4 -4 5 0
15 10 23 9 7 13 13 7 12 -23 -3 -35 2 -35 15 0 7 -10 26 -22 42 -51 64 -106
169 -96 182 8 8 6 12 -3 12 -8 0 -20 -9 -27 -20 -7 -12 -16 -18 -21 -15 -5 2
-15 -3 -22 -13 -13 -15 -12 -16 4 -3 9 7 17 9 17 4 0 -12 -35 -45 -41 -38 -3
2 -5 -5 -6 -15 -1 -11 3 -20 8 -20 6 0 7 -5 3 -11 -5 -8 -8 -8 -14 0 -5 9 -10
8 -20 -3 -7 -9 -16 -13 -21 -10 -19 11 -8 58 23 97 24 29 28 39 15 34 -10 -4
-23 -7 -29 -7 -6 0 -8 -6 -5 -14 3 -8 0 -19 -6 -24 -9 -8 -12 1 -13 32 l-1 43
62 12 c114 21 98 33 203 -163 26 -49 54 -92 62 -94 12 -4 11 0 -3 19 -9 13
-24 40 -33 59 -24 50 -125 220 -131 220 -2 0 -1 -4 2 -10 4 -6 -6 -10 -23 -10
-28 0 -35 9 -120 163 -136 246 -151 275 -145 280 6 7 -49 107 -59 107 -5 0 -8
5 -8 11 0 6 -7 17 -15 26 -9 8 -13 23 -10 32 4 15 0 17 -25 16 -22 -1 -29 2
-26 12 3 7 4 13 2 13 -2 0 -78 -83 -170 -184z"/>
<path d="M3833 5379 c17 -10 17 -12 -4 -47 -12 -20 -30 -52 -41 -71 -10 -18
-47 -81 -82 -140 -35 -58 -113 -191 -174 -294 l-111 -188 15 -32 c15 -32 15
-33 -41 -122 -53 -85 -84 -113 -77 -72 2 11 26 57 53 103 28 46 49 91 47 100
-2 11 -11 2 -27 -27 -46 -86 -83 -139 -92 -133 -5 3 3 26 18 52 33 58 26 53
-21 -15 -33 -48 -34 -53 -16 -53 15 0 19 -6 18 -24 -1 -15 -7 -22 -18 -19 -8
2 -28 -1 -45 -6 l-30 -10 30 1 c102 4 108 -10 12 -29 -116 -24 -368 -86 -364
-90 2 -2 43 5 90 16 47 11 98 23 114 26 70 13 92 17 165 34 43 10 78 15 78 10
0 -5 -10 -9 -22 -9 -12 0 -19 -3 -15 -6 3 -4 23 -3 44 1 21 4 32 10 25 12 -18
7 -4 23 19 23 11 0 18 -4 15 -8 -2 -4 10 -6 29 -4 77 9 63 -6 -25 -27 -349
-82 -641 -144 -674 -143 -60 2 -35 -9 40 -16 l68 -7 2 -37 c3 -47 29 -46 -354
-8 -317 31 -301 27 -338 93 -8 15 -19 25 -24 22 -5 -3 -12 0 -16 6 -5 8 -3 9
6 4 8 -5 11 -3 8 6 -3 8 -15 13 -26 11 -27 -4 -30 22 -4 37 13 8 14 11 2 11
-8 0 -83 103 -167 228 -300 449 -319 475 -348 477 -17 0 -24 -4 -21 -12 5 -11
-10 -56 -34 -108 -6 -11 -36 -83 -69 -160 -32 -77 -108 -255 -168 -395 -61
-140 -113 -263 -117 -274 -4 -11 -12 -16 -22 -12 -9 3 -20 6 -25 6 -4 0 -6 7
-2 16 4 11 8 12 13 4 4 -6 21 20 40 62 63 140 170 401 167 405 -2 2 -48 -101
-102 -228 -55 -128 -101 -227 -103 -220 -2 7 -12 -1 -23 -18 -21 -34 -25 -56
-9 -46 16 10 12 -13 -11 -56 -11 -23 -18 -43 -15 -46 3 -3 13 13 22 36 15 39
34 55 34 29 0 -26 -50 -119 -60 -113 -15 9 -12 -4 4 -21 10 -9 16 -10 18 -3 3
9 29 9 93 3 78 -8 90 -12 94 -29 3 -18 18 -34 32 -35 3 0 5 19 6 43 1 114 3
125 21 130 12 3 11 5 -6 6 -19 1 -22 6 -20 29 2 15 5 29 9 32 3 3 13 26 23 53
10 28 22 44 28 41 7 -4 8 -2 4 4 -10 16 11 52 37 62 17 7 18 9 5 9 -22 1 -22
5 -4 39 18 35 33 70 46 106 7 18 15 26 25 22 8 -3 18 0 22 7 5 8 10 1 13 -18
4 -20 11 -29 21 -26 8 2 22 6 32 8 12 4 17 0 17 -15 0 -17 -10 -24 -42 -32
-24 -6 -52 -15 -63 -19 -18 -8 -17 -9 5 -7 14 1 30 5 35 8 6 3 25 9 43 13 21
4 32 12 32 24 0 25 21 48 53 55 23 5 27 3 27 -14 0 -11 -4 -20 -10 -20 -5 0
-10 5 -10 12 0 6 -3 9 -6 5 -4 -3 6 -27 21 -53 21 -36 30 -43 37 -33 7 10 8 6
5 -13 -3 -17 2 -34 14 -47 10 -10 15 -22 12 -25 -4 -3 1 -6 10 -6 8 0 17 -10
19 -22 3 -22 42 -36 53 -18 4 6 10 8 15 5 5 -3 19 -1 32 4 20 7 24 6 25 -9 2
-21 -38 -35 -49 -17 -5 8 -8 7 -8 -5 0 -9 -8 -19 -17 -22 -10 -3 0 -3 22 -1
22 2 49 7 60 10 13 4 28 -2 44 -16 23 -21 23 -23 5 -36 -22 -16 -38 -17 -28
-1 5 7 3 8 -6 3 -8 -5 -18 -1 -26 10 -8 10 -16 16 -19 13 -3 -3 1 -13 10 -21
20 -21 19 -27 -4 -27 -11 0 -22 -4 -25 -9 -4 -5 9 -6 29 -1 20 4 35 4 35 -1 0
-5 -9 -9 -19 -9 -11 0 -22 -4 -25 -9 -3 -4 13 -5 37 0 23 5 59 11 80 15 20 4
37 11 37 16 0 6 -8 7 -17 3 -26 -10 -83 -18 -83 -12 0 3 19 10 43 15 23 5 49
11 57 13 8 2 14 -2 12 -8 -1 -7 5 -13 13 -13 9 0 12 6 9 15 -4 8 -2 15 3 15 5
0 9 -8 10 -19 1 -15 -13 -22 -85 -39 -48 -12 -69 -19 -47 -17 22 3 58 9 80 15
50 12 62 13 49 2 -5 -5 -49 -17 -97 -27 -48 -10 -86 -20 -83 -22 2 -3 42 3 88
11 93 18 113 19 83 6 -17 -7 -17 -9 -2 -9 9 -1 17 -5 17 -11 0 -5 -8 -10 -17
-11 -15 0 -15 -2 2 -9 24 -10 15 -14 -67 -30 -32 -6 -58 -14 -58 -17 0 -3 17
-2 38 2 20 4 48 9 61 12 14 2 28 6 33 9 4 3 7 -5 5 -17 -3 -16 -13 -26 -35
-31 -44 -12 -40 -18 6 -12 28 4 33 3 22 -5 -8 -6 -10 -11 -4 -11 18 0 13 -69
-5 -73 -13 -4 -13 -5 2 -6 25 -2 21 -19 -5 -24 -22 -4 -22 -4 2 -6 20 -1 22
-3 10 -11 -12 -8 -9 -10 12 -10 20 0 26 4 22 15 -4 10 0 15 12 16 18 0 17 1
-1 8 -16 6 -12 9 20 15 22 4 50 10 61 12 15 4 23 0 27 -15 2 -11 0 -22 -7 -25
-8 -3 -8 -5 1 -5 22 -2 25 19 26 160 0 76 4 139 9 139 5 0 6 -4 3 -10 -3 -5
-1 -10 5 -10 7 0 10 -7 7 -14 -4 -10 -1 -13 7 -10 9 3 12 21 11 55 -1 27 2 52
6 55 5 3 9 -2 9 -10 0 -9 4 -16 9 -16 4 0 7 13 5 29 -3 27 -2 28 34 25 105
-10 360 -36 377 -39 32 -6 32 -7 0 -15 l-30 -8 28 -1 c15 0 27 -5 27 -10 0 -5
-12 -12 -27 -14 l-28 -4 28 -2 c39 -2 33 -34 -8 -42 l-30 -6 33 -2 c17 0 32
-6 32 -11 0 -6 -26 -8 -72 -4 -40 4 -71 4 -68 2 4 -5 94 -17 128 -18 6 0 12
-3 12 -7 0 -5 -28 -7 -62 -6 l-63 1 57 -7 c91 -10 80 -22 -18 -17 -69 4 -79 3
-44 -4 25 -5 64 -9 88 -9 23 -1 42 -6 42 -12 0 -6 -8 -8 -17 -5 -10 2 -67 7
-128 10 -111 5 -82 -2 78 -19 37 -4 65 -11 61 -16 -3 -5 -9 -7 -13 -5 -10 7
-217 20 -211 14 3 -3 50 -9 105 -12 137 -10 157 -26 25 -21 -122 5 -115 -1 13
-10 48 -4 87 -11 87 -17 0 -5 -8 -7 -17 -4 -10 3 -97 10 -193 16 -96 6 -183
13 -192 16 -10 3 -18 1 -18 -4 0 -5 46 -12 103 -16 95 -6 176 -13 252 -21 17
-1 38 -3 48 -4 9 0 17 -8 17 -16 0 -8 3 -15 8 -15 4 0 7 69 7 153 -1 83 3 157
7 163 5 7 17 10 28 7 15 -4 18 -11 13 -34 -4 -20 -1 -29 7 -29 7 0 10 8 7 20
-3 11 -1 20 5 20 6 0 8 7 4 15 -3 8 -1 15 4 15 13 0 13 87 0 95 -13 8 -3 25
16 25 11 0 14 -23 14 -125 0 -69 3 -125 8 -125 4 0 7 57 7 128 l0 127 25 3
c14 2 62 12 106 23 45 10 86 19 91 19 11 0 10 -30 -1 -49 -9 -14 -9 -361 -1
-370 3 -2 5 42 5 99 0 57 2 101 5 98 3 -2 5 -42 6 -88 1 -85 16 -159 19 -95 1
17 4 41 6 55 5 29 11 99 13 151 l1 37 72 10 c39 6 75 9 79 7 3 -3 4 -37 2 -76
-3 -50 -2 -69 6 -65 6 4 11 33 12 64 1 52 2 54 11 27 5 -16 12 -52 15 -80 7
-68 13 -70 14 -4 1 42 3 48 9 29 9 -27 8 -29 13 84 2 38 4 40 47 51 25 6 59
14 77 18 l31 6 1 -91 c1 -50 3 -94 6 -96 5 -5 8 212 6 391 -1 56 3 86 9 82 6
-3 10 -19 10 -36 0 -23 4 -29 21 -29 15 0 19 -5 15 -15 -3 -8 -1 -15 4 -15 5
0 9 57 9 132 0 96 4 134 13 140 10 6 10 8 -1 8 -11 0 -10 4 3 19 20 22 15 51
-11 73 -15 11 -16 11 -10 -4 3 -10 2 -18 -3 -18 -6 0 -10 7 -10 15 0 19 47 68
58 61 5 -3 9 1 9 9 0 12 -3 12 -15 2 -12 -10 -12 -6 2 21 12 23 23 32 41 32
16 0 25 6 25 15 0 13 -4 14 -20 5 -20 -11 -20 -10 -2 22 10 18 26 34 36 34 12
2 13 1 1 -3 -19 -6 -19 -18 1 -37 21 -21 31 -20 39 4 3 11 13 20 20 20 8 0 17
4 20 10 3 6 -1 7 -10 4 -11 -5 -14 -2 -9 10 3 9 12 16 20 16 7 0 11 6 8 13 -3
8 2 20 11 27 8 7 15 19 15 26 0 8 5 14 10 14 6 0 10 6 10 14 0 7 7 19 15 26 8
7 13 16 10 20 -3 5 -1 11 4 14 14 9 60 -55 53 -72 -3 -10 -1 -13 6 -8 19 12
15 22 -41 99 -65 87 -71 97 -60 97 5 0 26 -23 47 -52 97 -129 103 -147 59
-165 l-28 -12 30 3 c17 1 46 10 65 18 l35 16 -30 -1 c-29 -2 -29 -1 -29 50 1
51 0 53 -68 120 -38 37 -66 60 -62 51 5 -15 0 -18 -26 -18 -27 0 -31 3 -28 22
2 14 13 25 28 29 l25 7 -27 1 c-16 1 -28 5 -28 11 0 14 22 60 29 60 3 0 150
-144 325 -320 276 -276 357 -352 331 -311 -3 5 3 12 12 14 10 3 5 5 -12 6 -26
1 -79 50 -355 326 -179 179 -329 325 -335 325 -5 0 -2 -5 8 -11z m-11 -151 c4
-27 -6 -50 -57 -133 -101 -164 -135 -222 -135 -234 0 -6 -5 -11 -12 -11 -6 0
-9 -3 -5 -6 3 -4 1 -12 -6 -20 -7 -7 -34 -49 -62 -93 -30 -49 -57 -81 -67 -81
-28 0 -28 14 3 63 16 26 29 51 29 56 0 5 6 16 13 23 6 7 23 33 36 58 14 25 41
70 60 100 20 30 70 112 111 182 41 70 78 128 81 128 4 0 9 -15 11 -32z"/>
<path d="M6083 5061 c6 -9 19 -22 28 -28 21 -16 73 -103 66 -110 -6 -5 -71
-21 -122 -30 -53 -9 -60 -10 -84 -20 -13 -5 -39 -9 -57 -8 -19 0 -34 -2 -34
-6 0 -3 -28 -12 -62 -20 -35 -7 -56 -15 -48 -16 8 -2 40 3 70 11 l55 15 48
-47 c52 -51 51 -53 -30 -66 -26 -4 -43 -2 -43 4 0 5 -9 14 -20 20 -16 9 -18 8
-14 -5 4 -8 10 -15 15 -15 20 0 7 -18 -15 -22 -19 -4 -35 5 -71 42 -26 26 -43
50 -38 52 4 3 3 3 -4 2 -7 -2 -15 1 -18 7 -4 5 -13 2 -22 -7 -10 -9 -27 -14
-43 -12 -14 2 -32 -2 -39 -9 -7 -8 -8 -13 -1 -13 5 0 10 -5 10 -11 0 -5 -4 -7
-10 -4 -5 3 -10 1 -10 -4 0 -17 18 -13 38 9 11 12 35 23 53 26 30 5 37 2 48
-19 7 -14 24 -31 37 -38 41 -21 34 -28 -48 -43 -9 -2 -27 7 -39 20 -23 25 -14
34 11 12 8 -7 2 2 -14 19 -16 18 -32 30 -35 27 -3 -4 0 -9 7 -11 6 -3 12 -9
12 -15 0 -7 -5 -6 -14 1 -10 8 -16 9 -21 1 -3 -5 0 -10 8 -10 7 0 24 -11 37
-25 19 -20 20 -25 7 -25 -9 0 -19 5 -22 10 -3 6 -17 10 -31 10 -15 0 -23 -4
-19 -10 4 -6 15 -8 26 -5 11 4 19 2 19 -4 0 -15 -47 -14 -57 2 -4 6 -20 23
-35 36 -26 23 -27 23 -25 3 0 -11 4 -20 7 -20 17 1 20 -4 10 -24 -10 -21 -10
-21 3 -5 12 15 16 15 26 3 23 -28 -62 -32 -98 -4 -14 11 -14 10 1 -7 17 -20
16 -21 -27 -31 -27 -6 -45 -7 -45 -1 0 5 -6 7 -14 4 -16 -6 -40 16 -29 27 4 4
-1 4 -10 0 -16 -6 -16 -8 3 -21 16 -12 19 -18 10 -27 -8 -8 -14 -7 -23 4 -21
27 -84 69 -92 62 -5 -4 -5 -1 -1 6 4 6 15 12 25 12 9 0 23 -6 31 -12 12 -11
12 -10 1 5 -11 14 -11 17 0 17 9 0 10 3 3 8 -6 4 -14 14 -17 22 -3 10 -6 7 -6
-8 -1 -21 -5 -22 -41 -18 -29 3 -38 1 -33 -7 12 -19 66 -62 75 -60 4 2 7 0 7
-5 -1 -4 -1 -19 0 -34 1 -25 3 -27 26 -18 13 5 116 27 227 49 112 22 268 54
348 71 223 48 210 47 210 17 0 -16 -7 -28 -17 -31 -22 -6 -341 -66 -355 -66
-5 0 -6 -5 -2 -12 4 -7 9 -59 10 -116 4 -142 14 -142 14 0 l0 116 68 12 c37 6
111 20 166 31 54 10 100 19 102 19 1 0 2 -93 1 -207 l-2 -207 -25 -7 c-20 -6
-21 -7 -5 -8 47 -2 48 3 51 254 2 130 6 240 9 246 4 5 13 9 21 9 11 0 14 -26
14 -147 0 -80 3 -144 6 -140 4 3 7 70 7 147 0 140 1 142 24 151 49 18 71 11
84 -26 7 -19 17 -31 21 -27 5 5 -32 76 -81 158 -49 82 -85 151 -80 152 20 8 7
19 -16 14 -17 -3 -25 0 -25 10 0 8 -7 15 -15 15 -12 0 -12 -3 -2 -16z"/>
<path d="M6160 5055 c0 -9 131 -225 136 -225 5 0 -36 77 -81 150 -12 19 -25
42 -30 50 -5 8 7 3 26 -11 62 -47 166 -249 127 -249 -5 0 -5 -7 0 -17 15 -32
9 -58 -15 -61 -13 -2 -23 -8 -23 -14 0 -6 10 -8 24 -4 18 4 26 1 29 -11 3 -10
5 19 6 65 1 76 3 83 24 92 l22 9 -22 0 c-19 1 -23 7 -23 32 0 31 7 32 42 1 10
-8 15 -18 13 -23 -3 -4 -1 -10 5 -14 6 -4 10 5 10 19 0 14 2 26 5 26 3 0 98
-20 211 -45 112 -25 206 -45 209 -45 3 0 5 -7 5 -15 0 -8 -8 -15 -17 -15 -15
0 -16 -2 -3 -10 19 -12 24 -141 6 -152 -8 -6 -8 -8 0 -8 8 0 11 -40 10 -136
-1 -74 2 -137 6 -140 4 -3 8 52 9 123 2 261 1 252 16 246 8 -3 13 -24 14 -57
6 -240 8 -310 8 -369 1 -58 3 -66 15 -55 8 7 10 15 5 16 -5 2 -9 8 -9 14 0 7
26 9 78 5 89 -6 84 1 -9 11 l-64 7 -3 189 -2 189 37 -7 c21 -3 56 -8 78 -11
35 -4 -2 7 -92 28 -7 2 -16 6 -19 10 -10 10 27 9 62 -2 16 -5 61 -14 99 -21
39 -7 86 -19 105 -26 l35 -14 -55 5 c-30 2 -46 2 -35 -1 57 -14 75 -27 77 -53
4 -76 6 -124 7 -200 2 -143 11 -83 15 93 2 91 5 169 8 171 3 3 14 2 24 -2 20
-9 19 15 23 -375 1 -78 3 -87 18 -81 11 4 12 8 5 11 -23 7 -12 21 21 25 l32 4
-32 1 -33 2 0 185 0 185 23 -5 c30 -7 218 -45 223 -45 2 0 4 -17 5 -37 1 -34
2 -35 9 -13 5 15 9 -36 9 -130 2 -208 20 -176 23 41 4 224 22 218 26 -8 1 -95
6 -173 10 -173 4 0 7 87 6 192 -1 131 2 195 10 200 8 5 7 8 -1 8 -7 0 -13 7
-13 15 0 19 8 19 105 -4 44 -10 161 -36 260 -56 99 -21 185 -43 190 -50 6 -6
16 -10 23 -8 7 3 10 -1 6 -11 -3 -9 -1 -16 5 -16 6 0 11 6 11 14 0 8 15 18 33
22 l32 7 -33 8 c-18 4 -43 5 -55 2 -18 -4 -20 -3 -7 7 12 9 8 11 -18 6 -18 -3
-31 -2 -28 3 5 8 -46 20 -149 37 -11 1 -49 10 -85 19 -67 16 -81 20 -234 56
-49 11 -98 18 -108 16 -10 -3 -16 -2 -13 3 3 4 -8 10 -25 12 -19 3 -27 1 -23
-6 4 -7 2 -7 -8 0 -13 11 -54 22 -197 54 -29 7 -59 9 -68 6 -8 -3 -13 -2 -10
2 6 10 -198 57 -233 54 -13 -1 -29 2 -35 7 -6 5 -36 14 -66 20 -30 7 -66 15
-79 18 -15 4 -22 2 -18 -4 4 -6 -4 -8 -19 -5 -15 3 -21 8 -15 12 18 11 -322
84 -354 76 -18 -5 -45 12 -129 79 -93 76 -126 96 -126 80z m815 -301 c42 -9
83 -13 91 -10 8 3 13 2 10 -3 -3 -5 7 -11 22 -14 15 -4 115 -24 222 -47 284
-59 290 -60 290 -77 0 -11 -6 -14 -21 -10 -23 6 -324 71 -558 120 -89 18 -156
37 -159 45 -5 16 10 15 103 -4z m115 -69 c74 -15 136 -30 138 -34 1 -5 14 -6
27 -3 18 3 25 0 25 -12 0 -9 0 -19 1 -23 1 -15 -19 -13 -35 2 -9 9 -16 12 -16
6 0 -11 -20 -8 -135 19 -114 26 -149 34 -160 34 -5 1 -11 12 -13 24 -3 19 0
23 15 19 10 -3 79 -18 153 -32z"/>
<path d="M8306 4900 c-62 -70 -96 -99 -110 -98 -22 1 -238 -32 -244 -37 -6 -6
56 -35 73 -35 9 0 13 5 10 10 -8 13 11 13 37 -1 16 -9 18 -13 7 -19 -9 -6 -4
-10 17 -15 59 -13 70 -23 19 -19 -43 4 -47 3 -25 -7 14 -6 33 -15 42 -20 10
-5 34 -9 53 -9 36 0 95 -24 95 -38 0 -4 14 -15 30 -24 54 -31 32 -3 -30 38
-38 25 -60 46 -61 59 -1 16 -2 17 -6 3 -4 -14 -8 -15 -24 -5 -27 17 -24 27 11
27 17 0 30 5 30 11 0 6 -8 8 -17 6 -53 -15 -72 -16 -78 -6 -4 6 -14 8 -23 4
-9 -3 -13 -3 -10 1 4 4 3 15 -3 25 -9 19 -1 24 51 30 19 3 53 -11 62 -25 5 -6
8 -2 8 10 0 12 9 32 20 45 l19 24 2 -60 c1 -33 4 -50 6 -37 3 14 11 22 21 20
12 -2 18 5 20 26 3 28 63 116 120 179 20 21 22 27 10 27 -9 0 -22 2 -30 5 -7
2 -51 -38 -102 -95z"/>
<path d="M6862 4880 c14 -4 32 -12 40 -16 18 -12 38 -16 75 -18 17 0 29 -5 26
-9 -2 -4 10 -7 29 -6 31 2 360 -68 683 -146 200 -47 374 -82 365 -72 -3 3 -99
26 -215 51 -211 47 -409 91 -651 147 -71 16 -141 31 -155 33 -13 1 -31 5 -39
9 -25 11 -144 37 -165 36 -15 -1 -14 -3 7 -9z"/>
<path d="M4315 4792 c11 -10 21 -24 23 -31 3 -15 63 -101 69 -101 6 0 -6 19
-35 58 -35 46 -23 49 21 4 30 -31 36 -45 38 -85 3 -50 -15 -85 -27 -54 -3 9
-4 23 -1 31 3 8 3 16 -1 18 -4 2 -34 40 -66 86 -51 73 -86 102 -86 71 0 -5 4
-8 9 -5 5 3 14 0 20 -8 9 -11 9 -15 -1 -19 -9 -4 -7 -6 4 -6 37 -2 26 -21 -17
-32 -25 -6 -44 -14 -41 -16 2 -2 23 1 46 7 38 10 44 9 62 -10 17 -18 18 -24 7
-31 -14 -8 -11 -10 21 -13 8 0 14 -7 13 -13 -2 -7 2 -13 7 -13 6 0 10 -6 10
-13 0 -9 -22 -19 -56 -26 -30 -7 -53 -15 -50 -18 3 -3 26 0 52 6 52 13 63 9
43 -16 -12 -15 -12 -16 4 -10 10 4 30 7 44 7 20 0 24 4 20 20 -3 12 1 24 11
30 15 8 15 9 -1 10 -20 0 -19 21 1 28 15 5 34 -42 26 -63 -4 -8 -1 -15 5 -15
9 0 16 36 12 63 -2 11 24 9 143 -13 60 -11 117 -20 125 -19 18 1 -143 40 -174
43 -11 0 -23 5 -26 9 -4 5 -29 9 -58 10 -50 2 -53 4 -123 74 -39 40 -76 73
-82 73 -6 -1 -2 -9 9 -18z"/>
<path d="M5508 4592 c-173 -37 -184 -42 -158 -82 8 -12 10 -10 10 10 0 24 5
26 150 56 83 17 153 28 155 25 2 -4 4 -93 4 -198 l1 -191 -63 -11 c-34 -6 -99
-16 -144 -23 -46 -7 -83 -15 -83 -18 0 -4 62 4 138 16 75 13 140 24 144 24 3
0 7 -66 7 -147 1 -81 4 -149 6 -152 3 -2 5 103 6 235 1 131 2 296 3 366 0 71
-1 127 -4 127 -3 -1 -80 -18 -172 -37z"/>
<path d="M4165 4590 c-16 -4 -47 -11 -67 -14 -21 -4 -38 -11 -38 -16 0 -4 8
-6 19 -3 10 3 22 0 25 -5 3 -6 -20 -17 -56 -26 -41 -10 -49 -13 -22 -10 l41 5
0 -169 1 -170 -65 -12 c-35 -7 -74 -21 -86 -32 l-22 -19 25 13 c31 16 141 37
134 26 -3 -4 0 -8 5 -8 18 0 12 -38 -6 -44 -10 -2 -45 -10 -78 -16 -106 -19
-105 -19 -104 -43 0 -21 0 -22 9 -1 6 16 23 23 91 33 46 7 97 15 113 18 24 5
28 3 23 -10 -4 -10 -2 -17 3 -17 6 0 10 12 10 26 0 21 -4 24 -20 19 -20 -6
-20 -3 -18 201 2 155 6 208 16 212 8 2 12 -9 12 -37 0 -38 1 -40 23 -32 12 5
66 19 120 31 53 12 97 24 97 26 0 6 -66 -5 -107 -18 -18 -5 -45 -11 -60 -13
-16 -2 -35 -5 -42 -7 -7 -2 -15 2 -18 8 -2 6 37 20 97 33 55 12 100 25 100 27
0 3 -12 3 -27 0 -111 -24 -168 -34 -171 -31 -12 12 17 25 78 35 39 6 70 14 70
17 0 5 -45 0 -112 -13 -26 -4 -38 -3 -38 5 0 6 8 11 18 11 9 0 37 7 62 14 49
16 19 21 -35 6z"/>
<path d="M4890 4580 c19 -5 51 -10 70 -12 32 -4 40 -17 31 -52 0 -3 -15 0 -33
5 -21 5 -36 5 -42 -1 -7 -7 1 -10 21 -10 61 0 84 -29 25 -31 l-27 -1 29 -7
c17 -3 28 -10 25 -16 -2 -5 -6 -9 -9 -9 -3 1 -34 5 -70 8 l-65 6 55 -15 c30
-8 65 -14 78 -15 26 0 31 -20 5 -20 -10 0 -72 9 -138 19 -66 11 -149 23 -185
26 -36 4 -69 10 -74 13 -5 3 -6 0 -3 -6 7 -9 96 -28 125 -25 6 0 12 -2 12 -6
0 -4 13 -6 30 -3 16 2 38 1 47 -3 10 -4 36 -9 58 -11 87 -8 139 -20 143 -33 4
-11 -3 -13 -34 -7 -22 4 -82 13 -134 21 -52 8 -104 16 -115 19 -11 2 -49 7
-85 10 -81 7 -49 -9 36 -19 32 -3 82 -10 109 -15 28 -5 89 -15 136 -21 86 -11
86 -11 86 -40 0 -16 -3 -29 -7 -29 -3 0 -33 5 -66 11 -69 13 -70 13 -194 29
-52 7 -97 14 -100 15 -3 2 -12 0 -20 -6 -12 -7 -11 -9 5 -10 11 0 29 -2 40 -5
11 -2 32 -5 48 -6 15 -1 27 -5 27 -8 0 -3 19 -5 43 -5 38 -1 90 -6 190 -21 20
-3 37 -11 37 -16 0 -10 -76 -7 -150 6 -14 2 -47 8 -75 12 -27 4 -57 8 -65 9
-8 2 -46 6 -85 10 -125 14 -63 -3 90 -25 241 -33 285 -41 279 -51 -3 -5 -15
-7 -27 -4 -20 4 -73 10 -172 21 -104 11 -206 25 -220 30 -8 4 -15 2 -15 -3 0
-6 82 -20 183 -32 100 -12 200 -26 221 -31 24 -5 46 -5 55 0 9 5 11 10 5 10
-6 0 -11 13 -12 30 -1 25 4 31 31 40 l32 10 -32 -5 c-25 -3 -33 -1 -33 10 0
10 10 15 29 15 17 0 33 5 36 11 5 7 -5 8 -29 4 -51 -10 -46 10 7 23 l42 11
-42 -4 c-33 -4 -43 -2 -43 9 0 8 10 17 23 19 21 4 21 4 1 6 -16 1 -21 8 -22
30 -1 28 2 30 51 36 29 4 59 11 67 16 15 10 1 8 -81 -7 l-36 -6 -1 41 c-2 40
10 52 34 33 5 -4 32 -5 59 -2 49 5 49 5 -40 18 -116 17 -226 24 -175 12z"/>
<path d="M9141 4357 c1 -21 3 -25 6 -11 4 19 7 20 29 10 14 -6 22 -17 19 -25
-4 -10 -2 -11 8 -3 10 8 52 2 162 -23 83 -18 213 -47 290 -64 77 -17 237 -52
355 -79 198 -45 232 -51 218 -37 -6 6 -239 61 -468 110 -331 71 -566 127 -592
140 -28 14 -28 14 -27 -18z"/>
<path d="M9142 3882 l3 -417 2 393 c2 215 7 392 11 392 4 0 44 -7 89 -16 l83
-17 0 -131 c1 -72 1 -146 0 -164 0 -21 3 -31 10 -27 6 4 11 59 11 138 1 85 4
119 9 97 4 -19 8 -27 9 -17 1 19 10 20 64 8 20 -5 37 -6 37 -2 0 4 -21 12 -47
18 l-48 11 50 -5 c28 -3 59 -9 70 -14 l20 -8 -20 -1 c-19 -1 -18 -2 3 -10 21
-9 22 -15 23 -107 0 -54 2 -124 5 -155 l5 -58 -38 -2 c-37 -1 -37 -1 -5 -5 17
-2 32 -9 32 -15 0 -5 -6 -8 -13 -5 -8 3 -39 8 -70 12 -43 6 -57 11 -57 24 -1
14 -2 13 -11 -2 -6 -10 -9 -20 -7 -21 9 -8 198 -31 198 -24 0 4 -5 8 -11 8 -7
0 -9 19 -6 58 3 31 6 112 6 180 0 78 4 122 11 122 5 0 10 -23 10 -52 2 -180
10 -333 19 -331 5 1 47 -4 93 -12 45 -8 84 -15 86 -15 1 0 2 4 2 10 0 5 -5 9
-12 7 -9 -1 -11 41 -9 173 1 96 5 177 7 179 2 2 4 -49 4 -115 0 -65 4 -125 9
-133 6 -9 9 44 8 132 0 81 2 149 6 153 3 3 47 -3 96 -14 75 -16 91 -17 91 -6
0 19 19 18 126 -6 86 -19 132 -25 123 -16 -4 4 -56 16 -311 71 -38 8 -98 22
-135 30 -38 9 -81 16 -98 16 -16 1 -52 8 -80 15 -134 37 -356 86 -402 89 l-53
4 2 -417z m533 210 c45 -9 40 14 48 -216 l4 -119 -66 6 -66 5 63 -13 c34 -7
66 -16 70 -20 4 -4 -6 -5 -23 -2 -16 3 -49 9 -72 12 l-43 7 0 169 c0 128 3
169 13 169 8 0 7 4 -3 10 -11 8 -9 9 10 5 14 -3 43 -9 65 -13z"/>
<path d="M10181 3460 c-11 -6 -9 -9 10 -13 19 -3 18 -5 -8 -6 -18 0 -33 3 -33
7 0 4 -12 7 -27 6 -16 -1 -57 -3 -92 -3 -61 -1 -63 -2 -48 -19 12 -13 16 -36
16 -82 -2 -111 2 -176 9 -158 4 9 56 67 116 128 106 109 110 112 145 106 25
-4 31 -2 21 4 -8 5 -23 10 -33 10 -10 0 -28 7 -40 15 -14 9 -27 11 -36 5z"/>
<path d="M10181 3316 c-54 -53 -98 -96 -96 -96 2 0 -10 -13 -26 -29 -16 -16
-29 -39 -29 -51 0 -16 -4 -20 -15 -16 -11 4 -15 -2 -14 -27 0 -27 2 -29 9 -12
5 11 9 16 9 10 2 -17 21 19 21 38 0 28 60 87 90 88 18 1 20 3 7 6 -17 4 -16 8
9 34 15 16 34 29 41 29 8 0 12 4 9 9 -3 4 2 16 12 24 17 15 20 15 41 1 17 -13
20 -19 10 -30 -8 -10 -8 -14 0 -14 6 0 11 -7 11 -15 0 -8 -5 -15 -12 -15 -9 0
-9 -3 0 -12 10 -10 14 -10 21 0 6 10 16 9 44 -8 49 -29 47 -12 -3 22 -22 15
-40 33 -40 38 0 6 16 -2 37 -17 32 -25 43 -27 99 -24 53 2 69 -1 96 -20 18
-13 35 -27 36 -31 2 -4 13 -8 25 -7 15 0 17 2 7 6 -12 5 -67 43 -115 80 -5 5
-35 26 -65 47 -30 22 -70 50 -87 64 l-33 24 -99 -96z"/>
<path d="M5615 3220 c-71 -5 -146 -11 -165 -14 -48 -6 299 3 378 10 l62 6 0
-46 c0 -36 -4 -46 -17 -48 -10 -1 -25 -2 -33 -4 -8 -1 -33 -2 -54 -3 -22 -1
-36 -4 -33 -7 3 -4 30 -6 58 -5 29 0 58 -4 66 -10 10 -9 13 -51 13 -177 0 -91
2 -163 4 -161 6 6 15 132 16 210 0 51 3 66 15 66 8 0 13 -3 10 -5 -3 -3 4 -11
15 -19 29 -21 25 -38 -5 -19 -22 14 -25 15 -25 1 0 -8 5 -14 12 -12 7 1 12 -4
13 -11 0 -7 5 -16 11 -20 10 -6 23 -167 24 -289 l0 -42 52 -3 c47 -3 50 -4 33
-18 -11 -9 -16 -10 -11 -2 4 7 2 12 -8 12 -8 0 -18 -5 -21 -10 -4 -7 -13 -7
-26 0 -17 10 -19 7 -19 -27 l0 -38 69 2 70 2 -20 -23 c-12 -13 -28 -23 -37
-21 -9 1 -11 0 -4 -2 6 -3 12 -10 12 -16 0 -15 -20 -46 -20 -32 0 6 -4 3 -9
-4 -5 -8 -6 -22 -2 -30 4 -9 6 -26 6 -38 l-2 -22 27 22 c15 12 25 26 22 31 -2
4 -8 3 -12 -4 -5 -8 -10 -9 -14 -2 -9 15 9 23 30 15 11 -4 15 -3 11 4 -5 7 1
10 15 7 13 -2 17 -2 10 2 -6 3 -10 10 -6 15 5 8 -10 13 -29 10 -5 -1 -6 3 -2
8 3 6 13 7 21 4 13 -5 15 -1 9 15 -5 19 -2 22 19 22 14 0 28 -4 31 -10 3 -5 0
-10 -8 -10 -8 0 -21 -7 -28 -17 -13 -15 -12 -15 8 -4 19 10 22 9 17 -4 -4 -8
-10 -15 -15 -15 -5 0 -8 -3 -8 -7 1 -5 0 -12 -1 -18 -2 -5 -4 -26 -4 -46 -2
-37 9 -41 42 -16 8 6 12 5 12 -4 1 -9 9 -5 21 10 23 28 12 41 -36 41 -26 -1
-27 -2 -12 -11 10 -6 24 -8 32 -5 9 3 12 0 8 -10 -3 -8 -8 -13 -11 -10 -2 3
-13 1 -23 -4 -12 -7 -20 -7 -24 0 -3 5 2 10 12 10 17 1 17 1 1 11 -27 15 -22
29 10 29 15 0 34 6 41 13 11 10 13 10 7 0 -5 -9 0 -13 14 -13 17 0 20 4 15 20
-4 12 -2 20 5 20 6 0 8 -4 5 -10 -3 -5 -3 -10 2 -10 4 0 14 14 22 31 8 18 19
28 26 25 8 -3 21 6 29 20 19 27 15 31 -8 8 -17 -17 -21 -8 -7 15 5 7 26 15 48
16 l39 2 -73 -109 c-40 -59 -73 -113 -73 -120 0 -6 36 43 80 109 l79 121 48
-1 c103 -2 133 3 133 18 0 13 -23 15 -50 5 -3 -2 -9 -2 -14 -1 -5 1 -13 -4
-17 -11 -4 -7 -11 -9 -16 -5 -4 5 -3 11 2 15 6 4 16 20 23 35 7 15 17 25 22
22 10 -6 14 7 11 33 -1 8 11 12 36 12 31 -1 35 -3 23 -13 -8 -7 -16 -19 -18
-26 -2 -8 -11 -21 -20 -28 -15 -11 -10 -12 31 -9 26 2 51 7 55 11 4 5 -1 5
-10 2 -10 -4 -18 -2 -18 3 0 10 20 14 50 11 13 -2 13 0 1 8 -8 5 -22 8 -32 6
-16 -3 -17 -1 -6 16 14 22 23 24 30 7 4 -10 6 -10 6 0 1 6 11 12 24 12 18 0
19 -2 7 -10 -12 -8 -10 -10 8 -10 16 0 21 -4 16 -12 -5 -8 -1 -7 10 2 17 13
17 14 -1 21 -24 10 -20 11 55 13 l63 1 -3 -37 c-1 -24 -7 -38 -15 -38 -7 0
-13 -5 -13 -11 0 -5 3 -8 8 -6 4 3 7 -30 8 -73 1 -73 -1 -79 -20 -83 -20 -4
-20 -4 2 -6 22 -1 22 -1 22 -186 0 -132 -3 -184 -11 -182 -6 1 -14 -4 -16 -10
-3 -7 2 -13 10 -13 9 0 18 -10 20 -22 l4 -23 2 23 c0 12 7 25 14 27 9 3 136
12 205 15 6 0 12 5 12 10 0 6 -10 8 -22 5 -13 -2 -65 -7 -116 -9 l-94 -5 3
253 c2 201 5 253 16 253 10 0 13 -38 13 -180 0 -99 2 -178 5 -175 3 2 5 69 6
149 0 79 3 152 6 162 4 15 17 17 94 17 80 0 89 2 89 18 0 15 -7 18 -37 16 -84
-5 -90 -7 -48 -14 36 -6 32 -7 -27 -9 l-68 -1 0 218 0 217 43 -1 c23 -1 62 -2
86 -3 34 -1 42 -4 37 -16 -3 -8 -1 -15 4 -15 6 0 10 24 10 53 0 47 -3 54 -27
68 -26 14 -185 28 -172 15 5 -5 26 -8 119 -17 14 -2 -15 -5 -65 -8 l-90 -6 1
-42 c1 -37 -1 -41 -16 -33 -10 5 -21 6 -25 2 -3 -4 -12 -7 -17 -7 -6 0 -13 -6
-16 -14 -3 -8 0 -11 5 -8 5 3 15 2 23 -4 13 -7 12 -9 -2 -10 -10 -1 -22 -3
-28 -4 -5 -1 -14 -3 -20 -4 -5 0 -10 -5 -10 -11 0 -5 6 -7 14 -4 8 3 17 1 20
-5 4 -6 -5 -8 -23 -6 -19 2 -31 -1 -35 -10 -3 -10 0 -12 11 -8 11 4 14 2 11
-8 -3 -8 -10 -15 -16 -15 -7 -1 -19 -2 -28 -3 -8 0 -12 -6 -9 -12 4 -6 13 -8
21 -5 8 3 11 0 7 -10 -6 -16 -23 -19 -23 -3 0 6 -8 3 -17 -7 -11 -11 -18 -13
-21 -5 -2 6 -15 11 -28 11 -25 0 -32 14 -12 26 7 4 8 3 4 -4 -5 -8 4 -12 26
-12 27 0 34 4 35 21 1 12 8 29 16 38 8 9 17 24 20 34 4 9 14 17 22 17 9 0 13
5 10 10 -3 6 -1 10 4 10 6 0 10 6 8 13 -1 8 9 11 28 10 l30 -1 -30 13 c-16 8
-37 12 -47 9 -19 -6 -33 11 -18 21 6 4 15 17 20 30 7 17 14 21 34 18 14 -3 26
-1 26 5 0 6 -32 10 -82 9 -48 0 -63 -2 -35 -4 46 -4 62 -18 32 -29 -8 -4 -13
-9 -11 -13 3 -4 -5 -13 -17 -21 -19 -11 -20 -11 -11 1 21 26 23 46 6 46 -10 0
-22 -4 -29 -9 -7 -6 -22 1 -42 21 -30 30 -48 40 -37 23 3 -5 -14 -7 -37 -6
-23 2 -50 3 -60 3 -10 1 -15 6 -12 11 4 6 3 10 -2 9 -23 -4 -35 2 -29 16 3 9
0 15 -8 15 -21 0 -15 -29 8 -37 19 -6 18 -8 -9 -13 -37 -7 -48 6 -29 35 12 18
12 24 1 33 -14 12 -34 11 -56 -2 -9 -6 -12 -5 -8 1 5 7 -4 10 -23 9 -22 -2
-27 1 -19 10 6 7 22 11 37 9 15 -2 40 -4 55 -4 16 -1 26 -5 22 -11 -8 -12 42
-33 57 -24 6 4 8 2 5 -3 -4 -6 0 -16 9 -23 12 -10 17 -11 27 -1 9 10 8 11 -4
6 -10 -4 -20 -2 -24 4 -3 6 -1 11 6 11 19 0 1 14 -34 27 l-32 11 29 1 c17 1
40 -8 55 -21 l26 -23 -19 23 c-15 17 -16 22 -5 22 8 0 20 -5 27 -12 9 -9 12
-9 12 0 0 9 11 11 33 8 17 -3 100 -8 182 -11 83 -3 195 -7 250 -10 83 -3 90
-3 40 4 -33 5 -123 12 -200 15 -183 8 -499 25 -600 31 -172 11 -527 13 -650 5z"/>
<path d="M8702 3164 c-7 -7 -10 -26 -8 -40 l5 -27 -177 7 c-97 4 -301 14 -452
22 -267 13 -458 18 -449 10 3 -3 377 -23 556 -30 30 -1 33 -4 33 -33 0 -23 -5
-33 -15 -33 -8 0 -15 7 -15 16 0 8 -5 12 -10 9 -6 -4 -8 -11 -5 -16 4 -5 -17
-9 -48 -9 -40 0 -54 -4 -54 -14 0 -8 8 -17 18 -19 10 -3 16 0 13 7 -6 15 49
14 68 -2 13 -10 17 -10 22 3 6 17 46 21 46 4 0 -7 -9 -9 -21 -6 -17 4 -19 3
-10 -6 8 -8 11 -92 11 -284 0 -150 3 -273 8 -273 4 0 6 114 5 252 -1 161 2
255 8 259 21 12 59 -3 59 -24 0 -31 9 -15 12 21 2 32 18 46 18 17 0 -8 5 -15
10 -15 6 0 10 7 10 15 0 12 10 15 48 11 26 -2 84 -5 130 -5 67 -1 82 -4 82
-17 0 -8 5 -12 10 -9 6 4 8 10 5 15 -3 4 69 7 160 6 91 -2 165 1 165 6 0 4
-18 8 -40 8 -22 0 -40 5 -40 11 0 7 19 9 56 6 30 -2 52 -1 47 4 -4 4 -61 10
-126 12 -64 2 -114 0 -109 -5 4 -4 31 -8 60 -9 28 -1 52 -6 52 -11 0 -6 -90
-6 -222 -2 -123 5 -242 8 -265 8 -28 1 -43 6 -43 14 0 6 8 12 17 12 9 0 13 3
9 7 -4 4 -29 8 -57 8 -27 0 -49 5 -49 10 0 6 9 10 19 10 11 0 23 3 27 8 4 4
-7 7 -24 7 -18 0 -32 5 -32 11 0 8 32 9 108 5 59 -3 166 -8 237 -11 72 -3 146
-8 165 -10 69 -8 325 -16 319 -10 -9 8 -62 13 -203 20 -65 3 -122 8 -127 11
-5 3 -9 17 -9 31 0 23 3 24 28 18 30 -8 94 -13 195 -16 37 -1 70 -6 74 -12 4
-6 -43 -7 -143 -2 -142 6 -184 2 -98 -10 21 -3 45 -8 52 -10 6 -2 12 1 12 8 0
7 3 8 8 2 9 -13 214 -17 206 -4 -3 5 -10 7 -15 4 -5 -4 -9 -1 -9 5 0 6 7 13
15 16 29 11 15 20 -32 20 -95 0 -267 14 -277 23 -7 6 -16 4 -24 -5z"/>
<path d="M4950 3079 c-85 -4 -202 -10 -260 -13 -58 -3 -155 -5 -217 -6 -96 0
-112 -2 -107 -15 4 -8 2 -15 -2 -15 -5 0 -9 -11 -9 -23 0 -22 3 -24 45 -19 59
6 64 12 12 12 -43 0 -51 7 -30 28 15 15 32 16 23 2 -3 -6 4 -10 17 -10 18 0
20 2 8 10 -12 8 -11 10 6 10 11 0 25 -5 30 -10 12 -12 44 -3 44 11 0 5 37 9
83 9 56 0 77 -3 67 -10 -12 -8 -11 -10 8 -10 12 0 22 4 22 9 0 14 29 21 36 9
4 -6 3 -8 -4 -4 -6 3 -13 2 -17 -4 -3 -6 9 -9 32 -7 31 2 37 -1 35 -15 -2 -10
2 -18 8 -18 5 0 10 7 10 15 0 11 12 15 43 16 23 1 51 3 62 4 11 1 119 5 240 9
125 4 224 12 230 17 7 7 -29 9 -110 5 -234 -11 -462 -14 -395 -6 36 4 111 8
167 9 56 0 105 6 108 11 3 6 -2 9 -12 9 -10 -1 -88 -6 -173 -10z"/>
<path d="M4223 3066 c-7 -13 -31 -18 -104 -21 -51 -3 -130 -7 -174 -10 -44 -2
-168 -7 -275 -10 -107 -3 -224 -7 -260 -10 -36 -2 -108 -4 -160 -5 -89 -1 -94
-2 -72 -17 22 -15 22 -20 23 -222 1 -113 4 -196 6 -183 2 12 8 22 13 22 4 0 6
-9 3 -20 -3 -11 0 -20 6 -20 5 0 8 6 5 14 -3 9 3 17 16 21 17 5 19 10 10 18
-9 9 -14 9 -17 0 -2 -7 -11 -9 -19 -6 -12 4 -15 23 -13 85 2 95 13 95 13 0 1
-37 4 -66 9 -64 4 1 15 2 25 2 15 1 15 2 -2 15 -11 8 -15 15 -9 15 26 0 39
-58 16 -67 -21 -8 -15 -25 7 -18 12 4 20 2 20 -5 0 -6 -4 -8 -10 -5 -5 3 -10
2 -10 -4 0 -5 4 -11 10 -13 5 -1 10 -43 11 -93 1 -56 4 -82 9 -69 14 37 68 74
109 74 40 0 63 -17 80 -60 9 -23 10 -23 10 -4 1 12 -14 36 -31 53 -27 27 -30
34 -18 41 10 7 11 10 3 10 -7 0 -13 5 -13 11 0 6 9 8 23 3 21 -6 21 -6 -3 16
-16 15 -19 21 -8 17 10 -4 25 1 35 11 16 16 16 16 10 -1 -4 -11 -1 -20 8 -23
8 -4 15 -11 15 -17 0 -5 -8 -3 -18 6 -21 19 -42 23 -24 5 8 -8 9 -15 0 -25 -9
-11 -7 -12 8 -6 17 6 17 5 5 -10 -12 -16 -11 -16 21 -3 29 12 35 13 35 1 0 -7
-6 -11 -13 -8 -9 3 -12 -2 -8 -19 3 -12 6 -41 6 -63 0 -38 1 -39 8 -10 5 18 8
-29 9 -120 0 -95 -3 -145 -8 -135 -6 8 -8 28 -5 45 3 20 2 24 -4 12 -6 -15
-12 -10 -33 31 -21 40 -23 52 -13 68 6 10 14 33 18 49 5 29 5 29 -6 5 -6 -14
-17 -38 -25 -54 -7 -17 -9 -32 -4 -35 5 -3 23 -40 41 -81 23 -53 32 -89 31
-122 -1 -27 3 -48 9 -48 6 0 10 30 11 73 0 39 3 97 5 127 2 30 6 91 7 135 2
44 6 86 11 93 4 7 2 12 -4 12 -6 0 -9 4 -6 9 3 5 15 7 25 4 21 -5 35 -54 19
-64 -7 -4 -6 -8 2 -11 16 -5 17 -205 1 -221 -6 -6 -11 -22 -11 -37 1 -20 3
-18 15 15 27 76 34 129 25 190 -29 188 -31 213 -23 260 7 44 12 50 40 58 28 8
31 13 30 46 -2 80 25 117 71 100 32 -12 55 -70 42 -104 -6 -15 -10 -27 -10
-29 0 -1 10 -2 22 -3 32 -3 47 -24 48 -68 5 -233 4 -275 -9 -288 -6 -6 -11
-18 -10 -26 0 -11 4 -8 11 7 16 32 25 27 20 -13 -3 -25 0 -35 9 -35 11 0 14
24 16 101 1 56 4 104 7 107 6 6 10 -39 7 -75 -1 -13 3 -23 8 -23 6 0 9 124 8
319 -2 289 1 346 18 329 3 -3 7 -194 7 -424 1 -231 4 -369 7 -309 4 61 6 251
6 422 l0 313 23 0 c15 0 21 4 16 12 -5 7 -3 8 7 2 8 -5 55 -7 105 -5 101 3
125 -8 83 -40 -20 -15 -21 -17 -5 -16 17 2 19 -8 23 -103 3 -58 6 -107 9 -109
2 -2 4 62 4 143 l0 148 -27 -6 -28 -7 23 16 c19 14 25 15 39 3 15 -12 15 -11
3 12 -17 34 -17 34 -27 16z"/>
<path d="M7215 3071 c-3 -6 0 -9 8 -5 8 3 18 1 22 -5 3 -6 -1 -11 -9 -11 -13
0 -14 -59 -9 -492 3 -271 6 -494 8 -496 2 -2 56 1 122 7 270 25 253 24 253 2
0 -11 5 -23 10 -26 6 -4 10 5 10 19 0 14 6 26 13 26 9 0 9 2 0 8 -8 5 -13 46
-16 122 l-3 115 -2 -116 -2 -116 -67 -6 c-38 -4 -110 -9 -160 -13 l-93 -7 0
27 c0 21 5 26 28 27 15 0 45 2 67 4 22 2 77 5 121 7 49 2 80 7 78 13 -7 20
-11 565 -4 560 9 -5 7 42 -3 51 -4 4 -1 14 6 22 9 13 9 14 0 8 -9 -5 -13 0
-13 16 0 18 2 20 10 8 8 -12 10 -10 10 11 0 14 -5 30 -12 37 -9 9 -9 12 1 12
10 0 11 3 2 13 -6 8 -8 17 -4 21 4 4 8 20 9 35 1 23 -2 27 -20 24 -16 -3 -22
1 -23 15 -1 15 6 21 30 25 18 2 35 0 38 -6 4 -5 12 -6 19 -2 9 6 11 4 5 -6 -8
-12 -6 -12 8 0 16 13 16 14 0 27 -15 12 -16 13 -2 8 10 -3 20 -1 24 5 4 7 -13
11 -52 10 -44 -1 -52 -3 -33 -9 22 -7 20 -8 -15 -9 -29 0 -36 2 -25 9 11 7 3
9 -27 8 -24 -1 -43 -5 -43 -10 0 -4 -8 -8 -17 -8 -15 0 -16 2 -3 10 8 5 12 11
10 13 -3 3 -52 7 -110 10 -58 3 -112 8 -121 12 -10 3 -20 2 -24 -4z m355 -121
c0 -5 -6 -11 -12 -14 -10 -5 -10 -7 0 -12 9 -4 12 -49 12 -175 0 -144 -2 -169
-15 -169 -21 0 -19 -18 3 -23 9 -3 -46 -4 -123 -4 -94 0 -124 2 -90 7 l50 7
-48 1 -48 2 1 195 2 196 134 -2 c74 0 134 -5 134 -9z m0 -602 c0 -119 -4 -188
-10 -188 -5 0 -10 7 -10 15 0 8 -8 15 -17 15 -15 0 -16 -2 -3 -10 8 -5 12 -11
10 -14 -6 -6 -98 -15 -180 -17 -56 -2 -65 0 -62 14 2 10 -2 17 -8 17 -7 0 -9
-18 -5 -50 6 -48 5 -50 -19 -50 l-25 0 2 122 c2 106 4 123 19 126 12 2 18 -5
21 -30 2 -18 5 20 5 85 1 65 7 127 13 138 10 19 19 20 140 18 l129 -3 0 -188z"/>
<path d="M7696 3039 c3 -5 12 -9 20 -9 8 0 12 -4 9 -10 -4 -6 7 -10 24 -10 17
0 31 -4 31 -9 0 -13 -28 -22 -35 -11 -3 5 -19 8 -34 7 -43 -3 -18 -27 27 -27
47 0 36 -9 -18 -14 -29 -3 -39 -1 -29 5 8 5 9 9 3 9 -6 0 -17 -7 -24 -15 -7
-8 -9 -15 -4 -15 4 0 3 -5 -4 -12 -9 -9 -8 -16 5 -30 16 -18 16 -19 -11 -9
-15 6 -29 11 -31 11 -10 0 -1 -76 9 -82 17 -12 26 -9 26 7 0 8 -8 15 -17 15
-14 0 -15 2 -4 9 11 7 11 9 0 13 -8 3 -11 9 -7 13 4 4 14 -2 23 -13 11 -12 25
-18 36 -15 15 4 17 9 9 18 -8 9 -8 15 0 20 6 3 8 11 4 16 -3 5 -9 7 -14 4 -10
-6 -25 13 -17 22 3 3 30 6 59 8 29 1 41 0 25 -2 -15 -2 -25 -8 -22 -13 2 -4
-2 -13 -10 -20 -10 -9 -12 -17 -5 -30 7 -14 5 -20 -7 -25 -15 -5 -15 -7 -3
-15 13 -8 12 -10 -2 -10 -20 0 -25 -20 -5 -20 7 0 4 -7 -7 -15 -11 -8 -16 -18
-12 -22 9 -9 45 36 46 56 0 8 6 11 16 7 8 -3 12 -2 9 4 -6 10 29 85 45 95 6 4
8 12 4 18 -3 7 2 3 10 -8 15 -18 15 -20 -3 -27 -18 -6 -49 -48 -36 -48 3 0 18
7 33 16 25 15 25 15 8 0 -26 -21 -7 -21 22 0 14 9 21 22 18 31 -4 9 -2 11 5 7
7 -4 10 -1 7 7 -3 8 -11 13 -17 11 -7 -1 -10 2 -6 8 3 6 11 7 17 4 7 -5 9 -1
5 9 -4 11 -1 17 8 17 18 0 19 -12 4 -27 -8 -8 -8 -13 0 -17 11 -7 12 -6 15 16
0 6 6 13 12 15 7 2 10 -6 7 -22 -4 -18 -1 -25 11 -25 16 0 22 15 9 23 -5 2 -3
2 4 1 19 -4 41 39 36 69 -4 21 -1 27 13 27 9 0 14 3 11 7 -11 10 -308 12 -301
2z"/>
<path d="M3091 3028 c-1 -13 -16 -18 -68 -24 -38 -4 -72 -7 -77 -6 -4 2 -14
-3 -22 -9 -11 -9 -14 -9 -14 0 0 7 -4 10 -8 7 -5 -3 -44 -6 -88 -7 -74 -2 -80
-3 -81 -23 -2 -20 -1 -20 11 -3 9 11 20 15 31 11 15 -6 13 -9 -10 -18 -26 -11
-27 -12 -9 -26 16 -14 17 -13 11 2 -5 14 -2 17 16 14 12 -3 25 -5 30 -5 4 -1
7 -11 7 -23 0 -19 2 -20 11 -8 8 12 10 12 7 1 -2 -8 -12 -15 -21 -17 -17 -2
-21 7 -17 35 1 13 -1 13 -14 2 -9 -7 -13 -18 -9 -25 4 -6 -2 -4 -12 4 -38 30
-55 50 -52 63 1 6 -5 10 -13 8 -8 -1 -25 -4 -37 -5 -24 -1 -33 -16 -10 -16 8
0 19 -12 25 -26 7 -14 8 -23 4 -20 -5 3 -16 -4 -25 -14 -10 -13 -23 -17 -34
-13 -17 6 -17 5 0 -14 18 -21 23 -38 8 -29 -4 3 -7 -5 -6 -17 0 -12 -2 -29 -6
-38 -6 -11 0 -18 22 -26 16 -6 29 -8 29 -3 0 4 -6 10 -13 13 -9 3 -12 16 -9
36 l4 31 55 -53 c53 -50 99 -111 60 -78 -9 7 -25 11 -35 9 -13 -4 -22 3 -32
25 -11 26 -14 28 -23 12 -16 -28 -15 -58 2 -79 9 -11 10 -16 4 -12 -8 4 -13 1
-13 -8 0 -10 6 -13 15 -10 9 4 15 0 15 -7 0 -10 2 -11 8 -2 5 8 12 8 27 -3 17
-13 18 -16 5 -24 -8 -5 -10 -10 -5 -10 6 0 22 13 38 29 24 26 33 29 70 25 23
-3 47 -12 53 -19 6 -8 15 -15 19 -15 4 0 2 7 -5 15 -9 10 -9 15 -1 15 6 0 12
-3 12 -7 11 -64 12 -96 5 -123 -5 -19 -2 -28 13 -37 27 -17 40 3 15 22 -17 12
-15 13 14 10 39 -3 39 -1 7 29 -14 13 -25 26 -25 30 0 10 23 2 44 -16 26 -23
39 -23 31 1 -5 15 -1 19 13 18 11 0 19 -6 18 -12 -1 -5 3 -11 8 -12 5 -1 12
-7 17 -14 4 -7 8 38 8 100 0 107 -1 113 -19 108 -11 -3 -21 -2 -21 1 -6 30 -5
52 3 52 5 0 8 -8 6 -17 -2 -10 4 -19 14 -21 14 -3 17 3 14 32 -1 20 1 36 6 36
4 0 3 11 -2 25 -5 14 -6 25 -2 25 4 0 8 11 8 25 2 19 -3 25 -18 25 -10 0 -16
-4 -13 -10 3 -5 1 -10 -6 -10 -8 0 -8 -5 2 -17 11 -16 11 -16 -1 -5 -15 13
-21 82 -8 82 5 0 8 -7 8 -15 0 -8 9 -15 19 -15 12 0 18 7 17 18 0 9 6 17 14
17 40 1 55 35 16 35 -15 0 -26 7 -29 18 -4 15 -5 15 -6 0z"/>
<path d="M4825 2548 c0 -285 3 -438 10 -438 6 0 9 74 8 205 -1 117 2 205 8
205 5 0 10 -90 11 -202 l3 -203 53 -5 c30 -3 56 -2 58 2 3 4 -20 8 -50 8 l-56
0 2 208 c1 124 4 183 8 147 l6 -60 5 54 4 55 119 -3 c66 -1 124 -4 128 -7 4
-3 8 1 8 8 0 10 -24 13 -106 11 -59 -1 -129 1 -155 4 l-49 6 0 213 c0 213 0
214 22 214 28 0 15 13 -15 14 l-22 1 0 -437z"/>
<path d="M2450 2970 c0 -4 -13 -13 -30 -20 -18 -8 -30 -20 -30 -31 0 -11 -7
-19 -16 -19 -8 0 -12 -5 -9 -11 4 -6 9 -36 11 -67 2 -31 5 -72 8 -91 3 -18 2
-30 -2 -26 -4 4 -8 11 -8 16 -1 5 -2 10 -4 12 -4 5 -10 44 -16 97 -6 60 -11
71 -23 51 -6 -9 -10 -5 -13 13 -4 20 -2 24 7 16 8 -7 18 -3 31 12 17 21 17 21
1 8 -17 -12 -18 -12 -15 6 1 10 12 22 23 26 12 4 2 6 -28 7 -31 1 -46 -3 -42
-10 4 -5 8 -107 9 -225 2 -118 6 -217 10 -221 3 -3 6 8 6 25 0 18 4 32 10 32
5 0 7 -6 4 -13 -2 -7 4 -13 16 -14 11 -1 20 2 20 8 0 5 -3 9 -7 9 -5 0 -8 16
-8 35 0 32 20 52 23 23 2 -23 7 -43 16 -57 7 -10 5 -12 -5 -6 -8 4 -3 -2 10
-15 13 -13 26 -19 30 -13 3 6 13 10 21 10 8 0 24 4 35 8 17 6 18 5 5 -5 -13
-10 -12 -11 4 -6 11 4 23 1 27 -5 4 -7 7 -2 7 12 -1 13 0 115 2 227 2 164 5
202 16 202 8 0 14 -9 14 -20 0 -11 6 -19 13 -17 13 2 14 -1 17 -83 2 -49 3
-51 10 -23 4 18 5 55 3 84 -3 36 0 55 9 61 8 5 -23 8 -74 7 -49 -1 -88 -5 -88
-9z"/>
<path d="M4737 2973 c-1 0 -73 -3 -160 -5 -88 -1 -164 -6 -170 -11 -7 -4 72
-5 176 -1 155 5 187 4 187 -7 0 -11 -24 -14 -108 -16 -59 -1 -142 -2 -184 -3
-43 0 -80 -5 -83 -10 -4 -6 22 -8 69 -6 67 4 252 8 299 7 9 -1 17 -5 17 -11 0
-5 -23 -10 -52 -10 -58 0 -58 -13 0 -16 50 -2 52 -3 52 -14 0 -6 -32 -10 -77
-10 -42 0 -73 -3 -70 -6 4 -4 40 -7 82 -8 l75 -1 0 66 c0 66 -1 67 -26 65 -14
0 -26 -2 -27 -3z"/>
<path d="M1395 2929 c-49 -3 -82 -6 -72 -7 16 -2 17 -28 17 -391 0 -363 -1
-390 -17 -394 -14 -4 -12 -5 5 -6 18 -1 22 4 22 27 -1 403 4 557 19 564 14 6
14 7 -1 7 -21 1 -20 41 2 42 10 0 9 3 -5 9 -17 7 -16 9 10 10 29 2 30 2 5 10
-18 5 -21 9 -10 13 41 15 43 17 13 12 -18 -2 -33 0 -33 5 0 6 12 11 28 11 l27
1 -25 7 c-19 4 -25 13 -25 34 -1 24 3 27 31 27 19 0 34 -6 37 -15 8 -20 -8
-28 -23 -10 -7 8 -18 15 -24 15 -6 0 -3 -7 7 -14 18 -14 18 -14 0 -19 -14 -4
-14 -5 4 -6 16 -1 24 -9 29 -28 3 -16 7 -34 10 -40 2 -7 -4 -13 -14 -14 -14 0
-14 -2 -2 -7 19 -9 25 -42 8 -42 -9 0 -9 -3 2 -10 12 -8 12 -10 -5 -11 -15 0
-16 -2 -5 -7 16 -7 18 -40 19 -299 1 -82 5 -133 11 -133 6 0 10 7 10 16 0 14
11 16 69 12 38 -2 67 0 65 4 -3 4 -22 8 -43 8 -21 0 -53 3 -70 6 l-31 7 0 288
0 289 23 5 c12 3 32 7 45 8 12 0 22 5 22 10 0 4 4 6 8 3 4 -2 14 -1 22 4 16
10 0 10 -165 -1z"/>
<path d="M10271 2117 c0 -21 -7 -40 -13 -42 -7 -3 -173 -21 -368 -40 -195 -20
-431 -44 -525 -55 -93 -10 -249 -26 -345 -35 -96 -9 -263 -25 -370 -36 -107
-11 -231 -24 -275 -28 -44 -5 -64 -9 -45 -11 19 -1 71 -4 115 -6 43 -2 83 -8
88 -13 5 -5 23 -5 40 -2 43 10 117 2 118 -13 0 -6 2 -21 3 -34 2 -13 0 -25 -3
-27 -4 -2 -123 -17 -266 -35 -143 -17 -422 -51 -620 -75 -198 -25 -423 -51
-500 -60 -77 -8 -322 -38 -545 -65 -740 -91 -819 -100 -861 -100 -23 0 -128
11 -233 25 -105 14 -382 50 -616 80 -234 31 -544 71 -690 91 -585 78 -723 95
-739 91 -9 -3 -3 -5 12 -6 16 0 47 -6 70 -11 23 -6 132 -24 242 -40 110 -16
221 -34 247 -39 26 -6 154 -24 285 -41 399 -52 1140 -149 1283 -168 l135 -18
300 37 c165 20 401 49 525 63 621 74 1161 139 1735 209 l260 32 0 71 0 70 40
3 c22 1 83 8 135 16 121 18 167 23 800 90 540 57 588 63 593 74 2 3 0 24 -4
46 l-6 40 -2 -38z"/>
</g>
</svg>
